# AST/ASF file generated using VICON BodyLanguage
# -----------------------------------------------
:version 1.10
:name VICON
:units
  mass 1.0
  length 0.45
  angle deg
:documentation
   .ast/.asf automatically generated from VICON data using
   VICON BodyBuilder and BodyLanguage model FoxedUp or BRILLIANT.MOD
:root
   order TX TY TZ RX RY RZ
   axis XYZ
   position 0 0 0  
   orientation 0 0 0 
:bonedata
  begin
     id 1 
     name lhipjoint
     direction 0.645422 -0.672597 0.361999 
     length 2.39934 
     axis 0 0 0  XYZ
  end
  begin
     id 2 
     name lfemur
     direction 0.34202 -0.939693 0  
     length 6.58112  
     axis 0 0 20  XYZ
    dof rx ry rz
    limits (-160.0 20.0)
           (-70.0 70.0)
           (-60.0 70.0)
  end
  begin
     id 3 
     name ltibia
     direction 0.34202 -0.939693 0   
     length 7.02673   
     axis 0 0 20   XYZ
    dof rx
    limits (-10.0 170.0)
  end
  begin
     id 4 
     name lfoot
     direction 0.0835106 -0.229444 0.969733   
     length 2.08772   
     axis -90 7.62852e-016 20   XYZ
    dof rx rz
    limits (-45.0 90.0)
           (-70.0 20.0)
  end
  begin
     id 5 
     name ltoes
     direction 1.5358e-011 -4.21925e-011 1   
     length 1.04844   
     axis -90 7.62852e-016 20   XYZ
    dof rx
    limits (-90.0 20.0)
  end
  begin
     id 6 
     name rhipjoint
     direction -0.644959 -0.672941 0.362185   
     length 2.39812  
     axis 0 0 0  XYZ 
  end
  begin
     id 7 
     name rfemur
     direction -0.34202 -0.939693 0   
     length 6.67015   
     axis 0 0 -20   XYZ
    dof rx ry rz
    limits (-160.0 20.0)
           (-70.0 70.0)
           (-70.0 60.0)
  end
  begin
     id 8 
     name rtibia
     direction -0.34202 -0.939693 0   
     length 7.35735   
     axis 0 0 -20   XYZ
    dof rx
    limits (-10.0 170.0)
 end
 begin
     id 9 
     name rfoot
     direction -0.0670769 -0.184292 0.98058   
     length 2.25469  
     axis -90 -7.62852e-016 -20   XYZ
    dof rx rz
    limits (-45.0 90.0)
           (-20.0 70.0)
  end
  begin
     id 10 
     name rtoes
     direction -1.53575e-011 -4.21908e-011 1   
     length 1.13399   
     axis -90 -7.62852e-016 -20   XYZ
    dof rx
    limits (-90.0 20.0)
  end
  begin
     id 11 
     name lowerback
     direction -0.0188328 0.993434 -0.112847   
     length 2.27656   
     axis 0 0 0   XYZ
    dof rx ry rz
    limits (-20.0 45.0)
           (-30.0 30.0)
           (-30.0 30.0)
  end
  begin
     id 12 
     name upperback
     direction 0.00983139 0.998968 -0.04435   
     length 2.28631   
     axis 0 0 0   XYZ
    dof rx ry rz
    limits (-20.0 45.0)
           (-30.0 30.0)
           (-30.0 30.0)
  end
  begin
     id 13 
     name thorax
     direction 0.0177718 0.999807 0.00833073   
     length 2.30999   
     axis 0 0 0   XYZ
    dof rx ry rz
    limits (-20.0 45.0)
           (-30.0 30.0)
           (-30.0 30.0)
  end
  begin
     id 14 
     name lowerneck
     direction -0.0835025 0.993181 0.0813558   
     length 1.39447   
     axis 0 0 0   XYZ
    dof rx ry rz
    limits (-20.0 45.0)
           (-30.0 30.0)
           (-30.0 30.0)
  end
  begin
     id 15 
     name upperneck
     direction 0.210059 0.976535 0.0474817   
     length 1.39882   
     axis 0 0 0   XYZ
    dof rx ry rz
    limits (-20.0 45.0)
           (-30.0 30.0)
           (-30.0 30.0)
  end
  begin
     id 16
     name head
     direction 0.0780891 0.996944 -0.00207154  
     length 1.41828  
     axis 0 0 0   XYZ
    dof rx ry rz
    limits (-20.0 45.0)
           (-30.0 30.0)
           (-30.0 30.0)
  end
  begin
     id 17 
     name lclavicle
     direction 0.982414 0.166355 -0.0847829  
     length 3.57922  
     axis 0 0 0   XYZ
    dof ry rz
    limits (-20.0 10.0)
           (0.0 20.0)
  end
  begin
     id 18 
     name lhumerus
     direction 1 -4.48975e-011 5.47647e-028   
     length 4.76405   
     axis -180 -30 -90   XYZ
    dof rx ry rz
    limits (-60.0 90.0)
           (-90.0 90.0)
           (-90.0 90.0)
  end
  begin
     id 19
     name lradius
     direction 1 -4.48949e-011 -8.32142e-027   
     length 3.13759   
     axis -180 -30 -90   XYZ
    dof rx
    limits (-10.0 170.0)
  end
  begin
     id 20
     name lwrist
     direction 1 -4.48978e-011 -1.32705e-026   
     length 1.56879   
     axis 9.60836e-015 90 90   XYZ
    dof ry
    limits (-180.0 0.0)
 end
  begin
     id 21 
     name lhand
     direction 1 -4.48975e-011 -2.65409e-026   
     length 0.732262   
     axis 1.69354e-014 90 90   XYZ
    dof rx rz
    limits (-90.0 90.0)
           (-45.0 45.0)
  end
  begin
     id 22 
     name lfingers
     direction 1 -4.48923e-011 -5.30819e-026   
     length 0.590368   
     axis 3.38708e-014 90 90   XYZ
    dof rx
    limits (0.0 90.0)
  end
  begin
     id 23
     name lthumb
     direction 0.707107 -6.34914e-011 0.707107   
     length 0.847654   
     axis -90 45 2.85299e-015   XYZ
    dof rx rz
    limits (-45.0 45.0)
           (-45.0 45.0)
  end
  begin
     id 24 
     name rclavicle
     direction -0.963658 0.245183 -0.106063   
     length 3.43472  
     axis 0 0 0   XYZ 
    dof ry rz
    limits (-10.0 20.0)
           (-20.0 0.0)
  end
  begin
     id 25 
     name rhumerus
     direction -1 -4.48963e-011 -1.64784e-027  
     length 5.10161   
     axis -180 30 90   XYZ
    dof rx ry rz
    limits (-90.0 60.0)
           (-90.0 90.0)
           (-90.0 90.0)
  end
  begin
     id 26 
     name rradius
     direction -1 -4.48969e-011 -2.87943e-027   
     length 3.23267   
     axis -180 30 90   XYZ
    dof rx
    limits (-10.0 170.0)
  end
  begin
     id 27 
     name rwrist
     direction -1 -4.48982e-011 -1.32705e-026   
     length 1.61633   
     axis 9.60836e-015 -90 -90   XYZ
    dof ry
    limits (-180.0 0.0)
  end
  begin
     id 28
     name rhand
     direction -1 -4.48963e-011 -2.65409e-026   
     length 0.702   
     axis 1.69354e-014 -90 -90   XYZ
    dof rx rz
    limits (-90.0 90.0)
           (-45.0 45.0)
  end
  begin
     id 29
     name rfingers
     direction -1 -4.48934e-011 -5.30819e-026   
     length 0.565971   
     axis 3.38708e-014 -90 -90   XYZ
    dof rx
    limits (0.0 90.0)
  end
  begin
     id 30
     name rthumb
     direction -0.707107 -6.34908e-011 0.707107   
     length 0.812624   
     axis -90 -45 -2.85299e-015   XYZ
    dof rx rz
    limits (-45.0 45.0)
           (-45.0 45.0)
  end
:hierarchy
  begin
    root lhipjoint rhipjoint lowerback
    lhipjoint lfemur
    lfemur ltibia
    ltibia lfoot
    lfoot ltoes
    rhipjoint rfemur
    rfemur rtibia
    rtibia rfoot
    rfoot rtoes
    lowerback upperback
    upperback thorax
    thorax lowerneck lclavicle rclavicle
    lowerneck upperneck
    upperneck head
    lclavicle lhumerus
    lhumerus lradius
    lradius lwrist
    lwrist lhand lthumb
    lhand lfingers
    rclavicle rhumerus
    rhumerus rradius
    rradius rwrist
    rwrist rhand rthumb
    rhand rfingers
  end

#!OML:ASF \\sashay\E\basketball\basketball\Project 1\Capture day 1\Session 1\Subject.ASF
:FULLY-SPECIFIED
:DEGREES
1
root -38.5484 14.9422 -1.61373 4.6249 69.2727 3.5347
lowerback 25.2201 1.38687 -4.29372
upperback 10.6668 1.57462 1.2984
thorax -2.31728 0.914379 3.43364
lowerneck -8.52091 3.34005 -6.74586
upperneck -12.1047 5.64109 3.74359
head -2.77867 3.21157 2.39178
rclavicle 3.18055e-015 2.44505e-014
rhumerus -0.0174498 -21.0795 -61.399
rradius 71.964
rwrist -7.60264
rhand -20.4312 32.5149
rfingers 7.12502
rthumb 5.92355 2.61773
lclavicle 3.18055e-015 2.44505e-014
lhumerus -55.2583 -8.95557 89.1556
lradius 21.5093
lwrist 13.4452
lhand -10.0775 25.7418
lfingers 7.12502
lthumb 15.909 55.1084
rfemur -27.262 -18.3106 6.09201
rtibia 58.8484
rfoot -14.7347 -13.6469
rtoes -20.0571
lfemur -39.6199 25.9345 -11.3307
ltibia 72.6393
lfoot 2.60245 -2.47667
ltoes 2.59003
2
root -38.1233 14.9058 -1.60046 5.10937 69.6805 4.33027
lowerback 24.5815 1.55526 -5.47678
upperback 10.4595 1.53063 1.26489
thorax -2.24 0.85307 4.09298
lowerneck -8.59662 3.6282 -6.931
upperneck -10.8849 5.98682 3.9416
head -2.38657 3.35508 2.50037
rclavicle -4.37326e-015 1.90833e-014
rhumerus -2.30751 -22.3899 -59.5706
rradius 71.0831
rwrist -9.44462
rhand -20.562 30.7621
rfingers 7.12502
rthumb 5.79727 0.86138
lclavicle -4.37326e-015 1.90833e-014
lhumerus -55.8254 -7.9704 85.8661
lradius 21.5459
lwrist 11.4466
lhand -9.14688 26.0697
lfingers 7.12502
lthumb 16.805 55.3625
rfemur -25.4713 -18.1006 4.71696
rtibia 60.0769
rfoot -15.4019 -14.2977
rtoes -18.7251
lfemur -38.4232 25.8842 -9.76801
ltibia 70.3724
lfoot 1.57084 -0.704057
ltoes -4.43677
3
root -37.6933 14.8318 -1.58111 4.87561 70.2676 4.28927
lowerback 22.8956 1.28879 -3.78082
upperback 11.1266 1.61142 -0.77209
thorax -0.631478 0.980667 0.95094
lowerneck -9.68932 3.35844 -4.91508
upperneck -10.2661 5.62913 5.24825
head -1.94417 3.10835 2.604
rclavicle -7.55382e-015 -1.18277e-014
rhumerus -4.81319 -27.2997 -60.8476
rradius 70.0478
rwrist -10.9098
rhand -19.2217 29.0818
rfingers 7.12502
rthumb 7.09115 -0.779394
lclavicle -7.55382e-015 -1.18277e-014
lhumerus -54.3469 -11.1965 80.7853
lradius 21.6809
lwrist 11.6589
lhand -8.25696 26.5129
lfingers 7.12502
lthumb 17.6616 55.7307
rfemur -23.7187 -18.0778 3.67881
rtibia 61.5073
rfoot -15.5362 -14.7551
rtoes -22.1003
lfemur -37.1897 25.9681 -8.02128
ltibia 67.8014
lfoot 0.985533 -0.127983
ltoes -11.9097
4
root -37.2654 14.7307 -1.5495 3.95282 70.8644 3.73664
lowerback 22.3059 1.46167 -4.54397
upperback 11.0174 1.7031 -0.71328
thorax -0.476758 0.988382 1.43712
lowerneck -10.2399 3.46648 -5.60155
upperneck -8.95049 5.82361 6.13762
head -1.48333 3.21772 3.06063
rclavicle 1.0635e-014 2.98177e-015
rhumerus -7.38078 -29.3411 -59.022
rradius 68.5868
rwrist -13.2773
rhand -16.5292 27.0491
rfingers 7.12502
rthumb 9.68959 -2.70804
lclavicle 1.0635e-014 2.98177e-015
lhumerus -53.5574 -10.3898 77.1947
lradius 20.7411
lwrist 9.9735
lhand -7.9573 26.6444
lfingers 7.12502
lthumb 17.9499 55.8361
rfemur -21.6916 -17.821 2.72397
rtibia 62.8869
rfoot -15.9007 -14.3024
rtoes -25.4957
lfemur -35.5833 26.4415 -6.22756
ltibia 65.1705
lfoot -0.68336 -1.18788
ltoes -18.9356
5
root -36.8366 14.635 -1.50503 2.56026 71.4066 2.79511
lowerback 22.8486 1.94701 -6.29385
upperback 10.0808 1.87572 0.121926
thorax -1.82668 1.01118 3.2559
lowerneck -10.6672 3.68382 -7.16838
upperneck -6.67976 6.15681 7.13529
head -0.776285 3.39911 3.75011
rclavicle -1.68967e-015 -3.57812e-015
rhumerus -11.3763 -29.808 -55.1929
rradius 67.146
rwrist -16.3518
rhand -13.023 25.1806
rfingers 7.12502
rthumb 13.071 -4.38985
lclavicle -1.68967e-015 -3.57812e-015
lhumerus -53.9186 -8.38211 74.038
lradius 19.7646
lwrist 7.78747
lhand -8.0267 26.565
lfingers 7.12502
lthumb 17.8831 55.7628
rfemur -19.5049 -17.3681 1.92546
rtibia 64.1308
rfoot -16.004 -13.6839
rtoes -28.1111
lfemur -33.919 27.1477 -4.3217
ltibia 62.5801
lfoot -1.8902 -2.9318
ltoes -23.8765
